<mxfile host="app.diagrams.net" modified="2024-06-21T12:10:47.434Z" agent="Mozilla/5.0 (Windows NT 10.0; Win64; x64) AppleWebKit/537.36 (KHTML, like Gecko) Chrome/126.0.0.0 Safari/537.36 Edg/126.0.0.0" etag="dofgrwBC14UiZbAv4v3l" version="24.6.0" type="device">
  <diagram name="Page-1" id="Kf9nTV3XNAatD_H1ptYL">
    <mxGraphModel dx="1670" dy="948" grid="1" gridSize="10" guides="1" tooltips="1" connect="1" arrows="1" fold="1" page="1" pageScale="1" pageWidth="850" pageHeight="1100" math="0" shadow="0">
      <root>
        <mxCell id="0" />
        <mxCell id="1" parent="0" />
        <mxCell id="X8PRF4nB-B-VZwNvNS7d-1" value="" style="image;points=[];aspect=fixed;html=1;align=center;shadow=0;dashed=0;image=img/lib/allied_telesis/computer_and_terminals/Personal_Computer.svg;" vertex="1" parent="1">
          <mxGeometry x="50" y="480.00000000000006" width="45.6" height="61.800000000000004" as="geometry" />
        </mxCell>
        <mxCell id="X8PRF4nB-B-VZwNvNS7d-4" value="" style="image;points=[];aspect=fixed;html=1;align=center;shadow=0;dashed=0;image=img/lib/allied_telesis/security/Surveillance_Camera_Ceiling.svg;" vertex="1" parent="1">
          <mxGeometry x="651.4" y="120" width="37.2" height="35.4" as="geometry" />
        </mxCell>
        <mxCell id="X8PRF4nB-B-VZwNvNS7d-5" value="" style="image;points=[];aspect=fixed;html=1;align=center;shadow=0;dashed=0;image=img/lib/allied_telesis/security/DVS_Surveillance_Monitor.svg;direction=east;" vertex="1" parent="1">
          <mxGeometry x="120" y="170" width="49" height="70" as="geometry" />
        </mxCell>
        <mxCell id="X8PRF4nB-B-VZwNvNS7d-6" value="" style="image;points=[];aspect=fixed;html=1;align=center;shadow=0;dashed=0;image=img/lib/allied_telesis/security/DVS_Surveillance_Monitor.svg;" vertex="1" parent="1">
          <mxGeometry x="340" y="170" width="42" height="60" as="geometry" />
        </mxCell>
        <mxCell id="X8PRF4nB-B-VZwNvNS7d-51" style="edgeStyle=none;rounded=0;orthogonalLoop=1;jettySize=auto;html=1;" edge="1" parent="1" source="X8PRF4nB-B-VZwNvNS7d-7" target="X8PRF4nB-B-VZwNvNS7d-50">
          <mxGeometry relative="1" as="geometry" />
        </mxCell>
        <mxCell id="X8PRF4nB-B-VZwNvNS7d-7" value="" style="image;points=[];aspect=fixed;html=1;align=center;shadow=0;dashed=0;image=img/lib/allied_telesis/switch/Switch_24_port_L3.svg;" vertex="1" parent="1">
          <mxGeometry x="630" y="640" width="74.4" height="51" as="geometry" />
        </mxCell>
        <mxCell id="X8PRF4nB-B-VZwNvNS7d-9" style="edgeStyle=orthogonalEdgeStyle;rounded=0;orthogonalLoop=1;jettySize=auto;html=1;exitX=0.39;exitY=-0.006;exitDx=0;exitDy=0;exitPerimeter=0;curved=1;" edge="1" parent="1" source="X8PRF4nB-B-VZwNvNS7d-13" target="X8PRF4nB-B-VZwNvNS7d-5">
          <mxGeometry relative="1" as="geometry" />
        </mxCell>
        <mxCell id="X8PRF4nB-B-VZwNvNS7d-8" value="vc Hardware and&lt;div&gt;software&lt;/div&gt;" style="rounded=0;whiteSpace=wrap;html=1;" vertex="1" parent="1">
          <mxGeometry x="330" y="410" width="120" height="60" as="geometry" />
        </mxCell>
        <mxCell id="X8PRF4nB-B-VZwNvNS7d-10" style="edgeStyle=orthogonalEdgeStyle;rounded=0;orthogonalLoop=1;jettySize=auto;html=1;exitX=0.5;exitY=0;exitDx=0;exitDy=0;curved=1;" edge="1" parent="1" source="X8PRF4nB-B-VZwNvNS7d-15" target="X8PRF4nB-B-VZwNvNS7d-6">
          <mxGeometry relative="1" as="geometry">
            <mxPoint x="387" y="420" as="sourcePoint" />
            <mxPoint x="154" y="250" as="targetPoint" />
          </mxGeometry>
        </mxCell>
        <mxCell id="X8PRF4nB-B-VZwNvNS7d-11" style="edgeStyle=orthogonalEdgeStyle;rounded=0;orthogonalLoop=1;jettySize=auto;html=1;curved=1;exitX=1;exitY=0;exitDx=0;exitDy=0;" edge="1" parent="1" source="X8PRF4nB-B-VZwNvNS7d-17" target="X8PRF4nB-B-VZwNvNS7d-4">
          <mxGeometry relative="1" as="geometry">
            <mxPoint x="430" y="433" as="sourcePoint" />
            <mxPoint x="530.7071999999998" y="255.40140000000005" as="targetPoint" />
          </mxGeometry>
        </mxCell>
        <mxCell id="X8PRF4nB-B-VZwNvNS7d-12" style="edgeStyle=orthogonalEdgeStyle;rounded=0;orthogonalLoop=1;jettySize=auto;html=1;exitX=0;exitY=1;exitDx=0;exitDy=0;curved=1;" edge="1" parent="1" source="X8PRF4nB-B-VZwNvNS7d-8" target="X8PRF4nB-B-VZwNvNS7d-1">
          <mxGeometry relative="1" as="geometry">
            <mxPoint x="387" y="420" as="sourcePoint" />
            <mxPoint x="154" y="250" as="targetPoint" />
          </mxGeometry>
        </mxCell>
        <mxCell id="X8PRF4nB-B-VZwNvNS7d-14" value="" style="edgeStyle=orthogonalEdgeStyle;rounded=0;orthogonalLoop=1;jettySize=auto;html=1;exitX=0.39;exitY=-0.006;exitDx=0;exitDy=0;exitPerimeter=0;curved=1;" edge="1" parent="1" source="X8PRF4nB-B-VZwNvNS7d-8" target="X8PRF4nB-B-VZwNvNS7d-13">
          <mxGeometry relative="1" as="geometry">
            <mxPoint x="377" y="410" as="sourcePoint" />
            <mxPoint x="144" y="240" as="targetPoint" />
          </mxGeometry>
        </mxCell>
        <mxCell id="X8PRF4nB-B-VZwNvNS7d-13" value="monitor" style="rounded=0;whiteSpace=wrap;html=1;" vertex="1" parent="1">
          <mxGeometry x="70" y="240" width="120" height="30" as="geometry" />
        </mxCell>
        <mxCell id="X8PRF4nB-B-VZwNvNS7d-16" value="" style="edgeStyle=orthogonalEdgeStyle;rounded=0;orthogonalLoop=1;jettySize=auto;html=1;exitX=0.5;exitY=0;exitDx=0;exitDy=0;curved=1;" edge="1" parent="1" source="X8PRF4nB-B-VZwNvNS7d-8" target="X8PRF4nB-B-VZwNvNS7d-15">
          <mxGeometry relative="1" as="geometry">
            <mxPoint x="390" y="410" as="sourcePoint" />
            <mxPoint x="361" y="230" as="targetPoint" />
          </mxGeometry>
        </mxCell>
        <mxCell id="X8PRF4nB-B-VZwNvNS7d-15" value="monitor" style="rounded=0;whiteSpace=wrap;html=1;" vertex="1" parent="1">
          <mxGeometry x="301" y="240" width="120" height="30" as="geometry" />
        </mxCell>
        <mxCell id="X8PRF4nB-B-VZwNvNS7d-18" value="" style="edgeStyle=orthogonalEdgeStyle;rounded=0;orthogonalLoop=1;jettySize=auto;html=1;curved=1;exitX=1;exitY=0;exitDx=0;exitDy=0;" edge="1" parent="1" source="X8PRF4nB-B-VZwNvNS7d-8" target="X8PRF4nB-B-VZwNvNS7d-17">
          <mxGeometry relative="1" as="geometry">
            <mxPoint x="450" y="410" as="sourcePoint" />
            <mxPoint x="657" y="155" as="targetPoint" />
          </mxGeometry>
        </mxCell>
        <mxCell id="X8PRF4nB-B-VZwNvNS7d-17" value="capture and storage" style="rounded=0;whiteSpace=wrap;html=1;" vertex="1" parent="1">
          <mxGeometry x="610" y="170" width="120" height="30" as="geometry" />
        </mxCell>
        <mxCell id="X8PRF4nB-B-VZwNvNS7d-19" value="PC" style="rounded=0;whiteSpace=wrap;html=1;" vertex="1" parent="1">
          <mxGeometry x="12.799999999999997" y="535" width="120" height="30" as="geometry" />
        </mxCell>
        <mxCell id="X8PRF4nB-B-VZwNvNS7d-20" value="Swich" style="rounded=0;whiteSpace=wrap;html=1;" vertex="1" parent="1">
          <mxGeometry x="610" y="700" width="120" height="30" as="geometry" />
        </mxCell>
        <mxCell id="X8PRF4nB-B-VZwNvNS7d-21" value="" style="edgeStyle=orthogonalEdgeStyle;rounded=0;orthogonalLoop=1;jettySize=auto;html=1;exitX=1;exitY=1;exitDx=0;exitDy=0;curved=1;" edge="1" parent="1" source="X8PRF4nB-B-VZwNvNS7d-8" target="X8PRF4nB-B-VZwNvNS7d-7">
          <mxGeometry relative="1" as="geometry">
            <mxPoint x="387" y="420" as="sourcePoint" />
            <mxPoint x="140" y="280" as="targetPoint" />
          </mxGeometry>
        </mxCell>
        <mxCell id="X8PRF4nB-B-VZwNvNS7d-22" value="" style="shape=image;html=1;verticalAlign=top;verticalLabelPosition=bottom;labelBackgroundColor=#ffffff;imageAspect=0;aspect=fixed;image=https://cdn4.iconfinder.com/data/icons/developer-set-3/128/pause-128.png" vertex="1" parent="1">
          <mxGeometry x="110.5" y="623" width="68" height="68" as="geometry" />
        </mxCell>
        <mxCell id="X8PRF4nB-B-VZwNvNS7d-23" value="" style="edgeStyle=orthogonalEdgeStyle;rounded=0;orthogonalLoop=1;jettySize=auto;html=1;exitX=0.25;exitY=1;exitDx=0;exitDy=0;curved=1;" edge="1" parent="1" source="X8PRF4nB-B-VZwNvNS7d-8" target="X8PRF4nB-B-VZwNvNS7d-22">
          <mxGeometry relative="1" as="geometry">
            <mxPoint x="387" y="420" as="sourcePoint" />
            <mxPoint x="140" y="280" as="targetPoint" />
          </mxGeometry>
        </mxCell>
        <mxCell id="X8PRF4nB-B-VZwNvNS7d-25" value="Media Player" style="rounded=0;whiteSpace=wrap;html=1;" vertex="1" parent="1">
          <mxGeometry x="84.5" y="691" width="120" height="30" as="geometry" />
        </mxCell>
        <mxCell id="X8PRF4nB-B-VZwNvNS7d-26" value="" style="html=1;verticalLabelPosition=bottom;align=center;labelBackgroundColor=#ffffff;verticalAlign=top;strokeWidth=2;strokeColor=#0080F0;shadow=0;dashed=0;shape=mxgraph.ios7.icons.microphone;" vertex="1" parent="1">
          <mxGeometry x="890" y="410" width="30" height="30" as="geometry" />
        </mxCell>
        <mxCell id="X8PRF4nB-B-VZwNvNS7d-28" value="Mic array" style="rounded=0;whiteSpace=wrap;html=1;" vertex="1" parent="1">
          <mxGeometry x="880" y="470" width="75" height="30" as="geometry" />
        </mxCell>
        <mxCell id="X8PRF4nB-B-VZwNvNS7d-30" value="" style="verticalLabelPosition=bottom;html=1;verticalAlign=top;align=center;strokeColor=none;fillColor=#00BEF2;shape=mxgraph.azure.tablet;pointerEvents=1;" vertex="1" parent="1">
          <mxGeometry x="910" y="200" width="50" height="37.5" as="geometry" />
        </mxCell>
        <mxCell id="X8PRF4nB-B-VZwNvNS7d-31" value="" style="edgeStyle=orthogonalEdgeStyle;rounded=0;orthogonalLoop=1;jettySize=auto;html=1;exitX=1;exitY=0.25;exitDx=0;exitDy=0;curved=1;entryX=0;entryY=0.5;entryDx=0;entryDy=0;entryPerimeter=0;" edge="1" parent="1" source="X8PRF4nB-B-VZwNvNS7d-8" target="X8PRF4nB-B-VZwNvNS7d-30">
          <mxGeometry relative="1" as="geometry">
            <mxPoint x="387" y="420" as="sourcePoint" />
            <mxPoint x="140" y="280" as="targetPoint" />
          </mxGeometry>
        </mxCell>
        <mxCell id="X8PRF4nB-B-VZwNvNS7d-33" value="Tablet" style="rounded=0;whiteSpace=wrap;html=1;" vertex="1" parent="1">
          <mxGeometry x="920" y="260" width="75" height="30" as="geometry" />
        </mxCell>
        <mxCell id="X8PRF4nB-B-VZwNvNS7d-35" value="" style="edgeStyle=orthogonalEdgeStyle;rounded=0;orthogonalLoop=1;jettySize=auto;html=1;exitX=1;exitY=0.75;exitDx=0;exitDy=0;curved=1;entryX=0.5;entryY=1;entryDx=0;entryDy=0;" edge="1" parent="1" source="X8PRF4nB-B-VZwNvNS7d-8" target="X8PRF4nB-B-VZwNvNS7d-28">
          <mxGeometry relative="1" as="geometry">
            <mxPoint x="460" y="450" as="sourcePoint" />
            <mxPoint x="909" y="500" as="targetPoint" />
          </mxGeometry>
        </mxCell>
        <mxCell id="X8PRF4nB-B-VZwNvNS7d-37" style="edgeStyle=none;rounded=0;orthogonalLoop=1;jettySize=auto;html=1;entryX=0.654;entryY=0.692;entryDx=0;entryDy=0;entryPerimeter=0;" edge="1" parent="1" source="X8PRF4nB-B-VZwNvNS7d-28" target="X8PRF4nB-B-VZwNvNS7d-26">
          <mxGeometry relative="1" as="geometry" />
        </mxCell>
        <mxCell id="X8PRF4nB-B-VZwNvNS7d-38" value="" style="image;points=[];aspect=fixed;html=1;align=center;shadow=0;dashed=0;image=img/lib/allied_telesis/security/Surveillance_Camera_Ceiling.svg;" vertex="1" parent="1">
          <mxGeometry x="898.9" y="320" width="37.2" height="35.4" as="geometry" />
        </mxCell>
        <mxCell id="X8PRF4nB-B-VZwNvNS7d-43" style="edgeStyle=none;rounded=0;orthogonalLoop=1;jettySize=auto;html=1;" edge="1" parent="1" source="X8PRF4nB-B-VZwNvNS7d-41" target="X8PRF4nB-B-VZwNvNS7d-38">
          <mxGeometry relative="1" as="geometry" />
        </mxCell>
        <mxCell id="X8PRF4nB-B-VZwNvNS7d-41" value="Document Camera" style="rounded=0;whiteSpace=wrap;html=1;" vertex="1" parent="1">
          <mxGeometry x="857.5" y="360" width="120" height="30" as="geometry" />
        </mxCell>
        <mxCell id="X8PRF4nB-B-VZwNvNS7d-42" style="edgeStyle=none;rounded=0;orthogonalLoop=1;jettySize=auto;html=1;exitX=0.5;exitY=0;exitDx=0;exitDy=0;" edge="1" parent="1" source="X8PRF4nB-B-VZwNvNS7d-41" target="X8PRF4nB-B-VZwNvNS7d-41">
          <mxGeometry relative="1" as="geometry" />
        </mxCell>
        <mxCell id="X8PRF4nB-B-VZwNvNS7d-44" style="edgeStyle=none;rounded=0;orthogonalLoop=1;jettySize=auto;html=1;entryX=-0.174;entryY=0.658;entryDx=0;entryDy=0;entryPerimeter=0;" edge="1" parent="1" source="X8PRF4nB-B-VZwNvNS7d-8" target="X8PRF4nB-B-VZwNvNS7d-38">
          <mxGeometry relative="1" as="geometry" />
        </mxCell>
        <mxCell id="X8PRF4nB-B-VZwNvNS7d-48" style="edgeStyle=none;rounded=0;orthogonalLoop=1;jettySize=auto;html=1;exitX=0.5;exitY=0;exitDx=0;exitDy=0;" edge="1" parent="1" source="X8PRF4nB-B-VZwNvNS7d-8" target="X8PRF4nB-B-VZwNvNS7d-8">
          <mxGeometry relative="1" as="geometry" />
        </mxCell>
        <mxCell id="X8PRF4nB-B-VZwNvNS7d-49" style="edgeStyle=none;rounded=0;orthogonalLoop=1;jettySize=auto;html=1;exitX=0.75;exitY=1;exitDx=0;exitDy=0;" edge="1" parent="1" source="X8PRF4nB-B-VZwNvNS7d-41" target="X8PRF4nB-B-VZwNvNS7d-41">
          <mxGeometry relative="1" as="geometry" />
        </mxCell>
        <mxCell id="X8PRF4nB-B-VZwNvNS7d-50" value="" style="sketch=0;outlineConnect=0;fontColor=#232F3E;gradientColor=none;fillColor=#8C4FFF;strokeColor=none;dashed=0;verticalLabelPosition=bottom;verticalAlign=top;align=center;html=1;fontSize=12;fontStyle=0;aspect=fixed;pointerEvents=1;shape=mxgraph.aws4.internet_gateway;" vertex="1" parent="1">
          <mxGeometry x="936" y="667" width="78" height="78" as="geometry" />
        </mxCell>
        <mxCell id="X8PRF4nB-B-VZwNvNS7d-52" value="Internet Connection" style="rounded=0;whiteSpace=wrap;html=1;" vertex="1" parent="1">
          <mxGeometry x="920" y="750" width="120" height="30" as="geometry" />
        </mxCell>
        <mxCell id="X8PRF4nB-B-VZwNvNS7d-54" style="edgeStyle=none;rounded=0;orthogonalLoop=1;jettySize=auto;html=1;entryX=0.98;entryY=0.98;entryDx=0;entryDy=0;entryPerimeter=0;" edge="1" parent="1" source="X8PRF4nB-B-VZwNvNS7d-33" target="X8PRF4nB-B-VZwNvNS7d-30">
          <mxGeometry relative="1" as="geometry" />
        </mxCell>
      </root>
    </mxGraphModel>
  </diagram>
</mxfile>
